<?xml version="1.0" encoding="UTF-8" standalone="no"?>
<svg
   version="1.0"
   width="908.000000pt"
   height="1280.000000pt"
   viewBox="0 0 908.000000 1280.000000"
   preserveAspectRatio="xMidYMid meet"
   id="svg73"
   sodipodi:docname="dripb.svg"
   inkscape:version="1.1.1 (eb90963e84, 2021-10-02)"
   xmlns:inkscape="http://www.inkscape.org/namespaces/inkscape"
   xmlns:sodipodi="http://sodipodi.sourceforge.net/DTD/sodipodi-0.dtd"
   xmlns="http://www.w3.org/2000/svg"
   xmlns:svg="http://www.w3.org/2000/svg">
  <defs
     id="defs77" />
  <sodipodi:namedview
     id="namedview75"
     pagecolor="#505050"
     bordercolor="#eeeeee"
     borderopacity="1"
     inkscape:pageshadow="0"
     inkscape:pageopacity="0"
     inkscape:pagecheckerboard="0"
     inkscape:document-units="pt"
     showgrid="false"
     inkscape:zoom="0.47285156"
     inkscape:cx="189.27716"
     inkscape:cy="853.33333"
     inkscape:window-width="1852"
     inkscape:window-height="1016"
     inkscape:window-x="1988"
     inkscape:window-y="27"
     inkscape:window-maximized="1"
     inkscape:current-layer="svg73" />
  <metadata
     id="metadata67">
Created by potrace 1.15, written by Peter Selinger 2001-2017
</metadata>
  <g
     transform="translate(0.000000,1280.000000) scale(0.100000,-0.100000)"
     fill="#000000"
     stroke="none"
     id="g71">
    <path
       d="M4526 10235 c-11 -56 -84 -317 -126 -449 -128 -403 -267 -741 -469 -1146 -235 -469 -420 -775 -978 -1620 -176 -267 -369 -565 -428 -664 -229 -381 -363 -692 -420 -976 -22 -107 -29 -368 -16 -550 90 -1217 703 -2015 1726 -2245 230 -52 393 -68 695 -69 281 -1 389 7 608 45 745 129 1291 528 1602 1171 173 359 262 756 277 1233 9 297 -20 482 -113 732 -123 330 -261 572 -754 1318 -575 872 -745 1154 -985 1635 -203 407 -336 731 -465 1136 -42 132 -115 393 -126 449 -3 19 -10 35 -14 35 -4 0 -11 -16 -14 -35z"
       id="path69" />
  </g>
  <path
     style="fill:#17181c;stroke:none;stroke-width:2.11483;fill-opacity:1"
     d="m 547.7406,1368.0075 c -76.26457,-11.1693 -132.09844,-36.8584 -176.49614,-81.2059 -59.65904,-59.5915 -91.94033,-148.5514 -91.68045,-252.6504 0.0861,-34.48753 0.62964,-40.05549 5.78064,-59.21522 9.60615,-35.73122 28.36406,-75.91634 57.25617,-122.66006 7.18942,-11.63156 35.43082,-55.40851 62.75867,-97.28212 58.75981,-90.0358 79.35604,-123.60743 103.79596,-169.18628 39.34347,-73.37301 67.79089,-143.61797 89.31517,-220.54518 l 6.93203,-24.77494 2.49546,9.51673 c 18.70462,71.33258 45.02597,140.11604 80.29644,209.83226 31.09348,61.4599 46.52592,87.05042 125.46961,208.05745 72.21742,110.69685 89.6287,141.43537 104.9669,185.31253 11.17018,31.95385 13.61488,50.52043 12.32898,93.63373 -1.58623,53.1824 -10.37266,99.8966 -26.15848,139.0747 -38.46006,95.4524 -109.25258,154.0547 -213.01482,176.3343 -23.33927,5.0113 -30.59626,5.5529 -81.65869,6.0939 -30.82363,0.3265 -58.89798,0.1755 -62.38745,-0.3355 z"
     id="path1181"
     transform="scale(0.75)" />
</svg>
