<?xml version="1.0" encoding="UTF-8" standalone="no"?>
<svg
   sodipodi:docname="1560478-w.svg"
   id="svg43"
   preserveAspectRatio="xMidYMid meet"
   viewBox="0 0 908.000000 1280.000000"
   height="1280.000000pt"
   width="908.000000pt"
   version="1.0"
   inkscape:version="1.1.1 (eb90963e84, 2021-10-02)"
   xmlns:inkscape="http://www.inkscape.org/namespaces/inkscape"
   xmlns:sodipodi="http://sodipodi.sourceforge.net/DTD/sodipodi-0.dtd"
   xmlns="http://www.w3.org/2000/svg"
   xmlns:svg="http://www.w3.org/2000/svg">
  <defs
     id="defs47" />
  <sodipodi:namedview
     id="namedview45"
     pagecolor="#505050"
     bordercolor="#eeeeee"
     borderopacity="1"
     inkscape:pageshadow="0"
     inkscape:pageopacity="0"
     inkscape:pagecheckerboard="0"
     inkscape:document-units="pt"
     showgrid="false"
     inkscape:zoom="0.47285156"
     inkscape:cx="605.89839"
     inkscape:cy="853.33333"
     inkscape:window-width="1852"
     inkscape:window-height="1016"
     inkscape:window-x="1988"
     inkscape:window-y="27"
     inkscape:window-maximized="1"
     inkscape:current-layer="svg43" />
  <metadata
     id="metadata37">
Created by potrace 1.15, written by Peter Selinger 2001-2017
</metadata>
  <g
     transform="translate(0.000000,1280.000000) scale(0.100000,-0.100000)"
     fill="#000000"
     stroke="none"
     id="g41">
    <path
       d="M4526 10235 c-11 -56 -84 -317 -126 -449 -128 -403 -267 -741 -469 -1146 -235 -469 -420 -775 -978 -1620 -176 -267 -369 -565 -428 -664 -229 -381 -363 -692 -420 -976 -22 -107 -29 -368 -16 -550 90 -1217 703 -2015 1726 -2245 230 -52 393 -68 695 -69 281 -1 389 7 608 45 745 129 1291 528 1602 1171 173 359 262 756 277 1233 9 297 -20 482 -113 732 -123 330 -261 572 -754 1318 -575 872 -745 1154 -985 1635 -203 407 -336 731 -465 1136 -42 132 -115 393 -126 449 -3 19 -10 35 -14 35 -4 0 -11 -16 -14 -35z"
       id="path39" />
  </g>
  <path
     style="fill:#ffffff;stroke:none;stroke-width:2.11483"
     d="m 548.79802,1367.9078 c -21.88004,-2.7931 -54.77127,-10.2956 -73.44326,-16.7522 -123.9753,-42.87 -196.19739,-160.3429 -196.19739,-319.125 0,-43.92104 7.51639,-72.95178 31.75659,-122.65431 16.1197,-33.05211 26.65748,-50.35652 86.2864,-141.69351 80.31179,-123.01812 100.22843,-156.35396 131.40544,-219.94218 29.59219,-60.35578 48.97575,-110.0961 65.73232,-168.67613 4.73828,-16.56476 9.14602,-31.91579 9.795,-34.11339 0.70718,-2.39473 5.69959,11.58638 12.46025,34.89467 16.23343,55.96677 28.90265,89.57935 55.1589,146.34156 29.98852,64.83087 57.91156,112.75951 130.83757,224.57684 59.95182,91.924 77.35601,119.79842 91.1114,145.92317 32.75817,62.21561 41.97153,103.85078 36.97087,167.07148 -3.11178,39.3404 -7.52399,64.7215 -16.35992,94.1098 -22.71137,75.5383 -68.98285,135.8358 -131.36443,171.1841 -31.05197,17.5956 -71.2965,30.6658 -114.1193,37.0628 -20.02777,2.9917 -101.14638,4.2031 -120.03044,1.7923 z"
     id="path270"
     transform="scale(0.75)" />
  <path
     style="fill:#ffffff;stroke-width:2.11483"
     d="m 541.39612,1365.9156 c -18.2802,-3.2214 -56.18318,-12.6966 -68.73193,-17.182 C 367.50846,1311.147 299.42913,1217.2169 283.451,1087.6732 c -2.96991,-24.0787 -2.91801,-81.8351 0.088,-97.93342 4.07374,-21.81641 12.44085,-45.49847 26.33739,-74.54469 16.91737,-35.36027 23.06936,-45.5352 93.17636,-154.10652 31.63389,-48.98988 66.03437,-103.23523 76.4455,-120.54523 53.29591,-88.61205 95.02799,-183.89891 119.14088,-272.03446 2.78447,-10.17761 5.6562,-18.50475 6.38161,-18.50475 0.7254,0 3.48777,7.37547 6.1386,16.38992 19.39691,65.96159 34.98045,107.43628 62.37152,165.99807 29.56765,63.21528 53.56975,104.08113 135.79143,231.19768 58.85642,90.99338 73.64303,115.24433 89.13863,146.19283 29.93591,59.7894 37.20637,103.69377 28.9126,174.59517 -9.49283,81.1518 -36.76618,145.0123 -82.85511,194.0051 -39.17295,41.6411 -84.6903,66.4325 -149.96351,81.6789 -24.17922,5.6478 -27.72316,5.9073 -86.54168,6.3372 -33.73152,0.2466 -63.70921,0.029 -66.6171,-0.4834 z"
     id="path346"
     transform="scale(0.75)" />
</svg>
